<?xml version="1.0" standalone="no"?><!DOCTYPE svg PUBLIC "-//W3C//DTD SVG 1.1//EN" "http://www.w3.org/Graphics/SVG/1.1/DTD/svg11.dtd"><svg t="1712023133476" class="icon" viewBox="0 0 1024 1024" version="1.1" xmlns="http://www.w3.org/2000/svg" p-id="5156" xmlns:xlink="http://www.w3.org/1999/xlink" width="200" height="200"><path d="M1003.52 634.81856h-61.35808v61.5424H1003.52v-61.5424zM1003.52 573.44h-61.35808v61.35808H1003.52v-61.3376z" fill="#000000" p-id="5157"></path><path d="M1003.52 512.1024h-61.35808v61.35808H1003.52v-61.35808zM1003.52 450.56h-61.35808v61.5424H1003.52V450.56zM1003.52 389.18144h-61.35808V450.56H1003.52v-61.35808z" fill="#000000" p-id="5158"></path><path d="M1003.52 327.63904h-61.35808v61.56288H1003.52v-61.56288zM942.16192 757.71904h-61.35808v61.5424h61.35808v-61.5424z" fill="#000000" p-id="5159"></path><path d="M942.16192 696.36096h-61.35808v61.35808h61.35808v-61.35808z" fill="#000000" p-id="5160"></path><path d="M942.16192 634.81856h-61.35808v61.5424h61.35808v-61.5424zM942.16192 573.44h-61.35808v61.35808h61.35808v-61.3376z" fill="#A2A8F6" p-id="5161"></path><path d="M942.16192 512.1024h-61.35808v61.35808h61.35808v-61.35808z" fill="#A2A8F6" p-id="5162"></path><path d="M942.16192 450.56h-61.35808v61.5424h61.35808V450.56z" fill="#000000" p-id="5163"></path><path d="M942.16192 389.18144h-61.35808V450.56h61.35808v-61.35808z" fill="#FDFDFD" p-id="5164"></path><path d="M942.16192 327.63904h-61.35808v61.56288h61.35808v-61.56288z" fill="#FDFDFD" p-id="5165"></path><path d="M942.16192 266.28096h-61.35808v61.35808h61.35808v-61.35808zM942.16192 204.94336h-61.35808v61.3376h61.35808v-61.3376zM880.80384 819.26144H819.2v61.35808h61.58336v-61.35808z" fill="#000000" p-id="5166"></path><path d="M880.80384 757.71904H819.2v61.5424h61.58336v-61.5424z" fill="#A2A8F6" p-id="5167"></path><path d="M880.80384 696.36096H819.2v61.35808h61.58336v-61.35808zM880.80384 634.81856H819.2v61.5424h61.58336v-61.5424zM880.80384 573.44H819.2v61.35808h61.58336v-61.3376z" fill="#A2A8F6" p-id="5168"></path><path d="M880.80384 512.1024H819.2v61.35808h61.58336v-61.35808z" fill="#A2A8F6" p-id="5169"></path><path d="M880.80384 450.56H819.2v61.5424h61.58336V450.56z" fill="#000000" p-id="5170"></path><path d="M880.80384 389.18144H819.2V450.56h61.58336v-61.35808z" fill="#FDFDFD" p-id="5171"></path><path d="M880.80384 327.63904H819.2v61.56288h61.58336v-61.56288z" fill="#FDFDFD" p-id="5172"></path><path d="M880.80384 266.28096H819.2v61.35808h61.58336v-61.35808zM880.80384 204.94336H819.2v61.3376h61.58336v-61.3376z" fill="#FDFDFD" p-id="5173"></path><path d="M880.80384 143.38048H819.2v61.56288h61.58336V143.36zM819.22048 880.61952h-61.35808v61.35808H819.2v-61.35808z" fill="#000000" p-id="5174"></path><path d="M819.22048 819.26144h-61.35808v61.35808H819.2v-61.35808zM819.22048 757.71904h-61.35808v61.5424H819.2v-61.5424z" fill="#A2A8F6" p-id="5175"></path><path d="M819.22048 696.36096h-61.35808v61.35808H819.2v-61.35808zM819.22048 634.81856h-61.35808v61.5424H819.2v-61.5424zM819.22048 573.44h-61.35808v61.35808H819.2v-61.3376z" fill="#A2A8F6" p-id="5176"></path><path d="M819.22048 512.1024h-61.35808v61.35808H819.2v-61.35808z" fill="#A2A8F6" p-id="5177"></path><path d="M819.22048 450.56h-61.35808v61.5424H819.2V450.56z" fill="#000000" p-id="5178"></path><path d="M819.22048 389.18144h-61.35808V450.56H819.2v-61.35808z" fill="#FDFDFD" p-id="5179"></path><path d="M819.22048 327.63904h-61.35808v61.56288H819.2v-61.56288z" fill="#FDFDFD" p-id="5180"></path><path d="M819.22048 266.28096h-61.35808v61.35808H819.2v-61.35808zM819.22048 204.94336h-61.35808v61.3376H819.2v-61.3376z" fill="#FDFDFD" p-id="5181"></path><path d="M819.22048 143.38048h-61.35808v61.56288H819.2V143.36z" fill="#FDFDFD" p-id="5182"></path><path d="M819.22048 82.04288h-61.35808V143.36H819.2V82.04288zM757.8624 880.61952h-61.56288v61.35808h61.56288v-61.35808z" fill="#000000" p-id="5183"></path><path d="M757.8624 819.26144h-61.56288v61.35808h61.56288v-61.35808zM757.8624 757.71904h-61.56288v61.5424h61.56288v-61.5424z" fill="#A2A8F6" p-id="5184"></path><path d="M757.8624 696.36096h-61.56288v61.35808h61.56288v-61.35808zM757.8624 634.81856h-61.56288v61.5424h61.56288v-61.5424zM757.8624 573.44h-61.56288v61.35808h61.56288v-61.3376z" fill="#A2A8F6" p-id="5185"></path><path d="M757.8624 512.1024h-61.56288v61.35808h61.56288v-61.35808z" fill="#A2A8F6" p-id="5186"></path><path d="M757.8624 450.56h-61.56288v61.5424h61.56288V450.56z" fill="#000000" p-id="5187"></path><path d="M757.8624 389.18144h-61.56288V450.56h61.56288v-61.35808z" fill="#FDFDFD" p-id="5188"></path><path d="M757.8624 327.63904h-61.56288v61.56288h61.56288v-61.56288z" fill="#FDFDFD" p-id="5189"></path><path d="M757.8624 266.28096h-61.56288v61.35808h61.56288v-61.35808zM757.8624 204.94336h-61.56288v61.3376h61.56288v-61.3376z" fill="#FDFDFD" p-id="5190"></path><path d="M757.8624 143.38048h-61.56288v61.56288h61.56288V143.36z" fill="#FDFDFD" p-id="5191"></path><path d="M757.8624 82.04288h-61.56288V143.36h61.56288V82.04288zM696.29952 941.95712h-61.37856V1003.52H696.32v-61.56288z" fill="#000000" p-id="5192"></path><path d="M696.29952 880.61952h-61.37856v61.35808H696.32v-61.35808zM696.29952 819.26144h-61.37856v61.35808H696.32v-61.35808zM696.29952 757.71904h-61.37856v61.5424H696.32v-61.5424z" fill="#A2A8F6" p-id="5193"></path><path d="M696.29952 696.36096h-61.37856v61.35808H696.32v-61.35808zM696.29952 634.81856h-61.37856v61.5424H696.32v-61.5424zM696.29952 573.44h-61.37856v61.35808H696.32v-61.3376z" fill="#A2A8F6" p-id="5194"></path><path d="M696.29952 512.1024h-61.37856v61.35808H696.32v-61.35808z" fill="#A2A8F6" p-id="5195"></path><path d="M696.29952 450.56h-61.37856v61.5424H696.32V450.56z" fill="#000000" p-id="5196"></path><path d="M696.29952 389.18144h-61.37856V450.56H696.32v-61.35808z" fill="#FDFDFD" p-id="5197"></path><path d="M696.29952 327.63904h-61.37856v61.56288H696.32v-61.56288z" fill="#FDFDFD" p-id="5198"></path><path d="M696.29952 266.28096h-61.37856v61.35808H696.32v-61.35808zM696.29952 204.94336h-61.37856v61.3376H696.32v-61.3376z" fill="#FDFDFD" p-id="5199"></path><path d="M696.29952 143.38048h-61.37856v61.56288H696.32V143.36z" fill="#000000" p-id="5200"></path><path d="M696.29952 82.04288h-61.37856V143.36H696.32V82.04288z" fill="#FDFDFD" p-id="5201"></path><path d="M696.29952 20.48h-61.37856v61.56288H696.32V20.48zM634.94144 941.95712h-61.37856V1003.52h61.37856v-61.56288z" fill="#000000" p-id="5202"></path><path d="M634.94144 880.61952h-61.37856v61.35808h61.37856v-61.35808zM634.94144 819.26144h-61.37856v61.35808h61.37856v-61.35808zM634.94144 757.71904h-61.37856v61.5424h61.37856v-61.5424z" fill="#A2A8F6" p-id="5203"></path><path d="M634.94144 696.36096h-61.37856v61.35808h61.37856v-61.35808zM634.94144 634.81856h-61.37856v61.5424h61.37856v-61.5424zM634.94144 573.44h-61.37856v61.35808h61.37856v-61.3376z" fill="#A2A8F6" p-id="5204"></path><path d="M634.94144 512.1024h-61.37856v61.35808h61.37856v-61.35808z" fill="#A2A8F6" p-id="5205"></path><path d="M634.94144 450.56h-61.37856v61.5424h61.37856V450.56z" fill="#000000" p-id="5206"></path><path d="M634.94144 389.18144h-61.37856V450.56h61.37856v-61.35808z" fill="#FDFDFD" p-id="5207"></path><path d="M634.94144 327.63904h-61.37856v61.56288h61.37856v-61.56288z" fill="#FDFDFD" p-id="5208"></path><path d="M634.94144 266.28096h-61.37856v61.35808h61.37856v-61.35808zM634.94144 204.94336h-61.37856v61.3376h61.37856v-61.3376z" fill="#FDFDFD" p-id="5209"></path><path d="M634.94144 143.38048h-61.37856v61.56288h61.37856V143.36zM634.94144 82.04288h-61.37856V143.36h61.37856V82.04288z" fill="#FDFDFD" p-id="5210"></path><path d="M634.94144 20.48h-61.37856v61.56288h61.37856V20.48zM573.56288 941.95712H512V1003.52h61.56288v-61.56288z" fill="#000000" p-id="5211"></path><path d="M573.56288 880.61952H512v61.35808h61.56288v-61.35808zM573.56288 819.26144H512v61.35808h61.56288v-61.35808zM573.56288 757.71904H512v61.5424h61.56288v-61.5424z" fill="#A2A8F6" p-id="5212"></path><path d="M573.56288 696.36096H512v61.35808h61.56288v-61.35808zM573.56288 634.81856H512v61.5424h61.56288v-61.5424zM573.56288 573.44H512v61.35808h61.56288v-61.3376z" fill="#A2A8F6" p-id="5213"></path><path d="M573.56288 512.1024H512v61.35808h61.56288v-61.35808z" fill="#A2A8F6" p-id="5214"></path><path d="M573.56288 450.56H512v61.5424h61.56288V450.56z" fill="#000000" p-id="5215"></path><path d="M573.56288 389.18144H512V450.56h61.56288v-61.35808z" fill="#FDFDFD" p-id="5216"></path><path d="M573.56288 327.63904H512v61.56288h61.56288v-61.56288z" fill="#FDFDFD" p-id="5217"></path><path d="M573.56288 266.28096H512v61.35808h61.56288v-61.35808zM573.56288 204.94336H512v61.3376h61.56288v-61.3376z" fill="#FDFDFD" p-id="5218"></path><path d="M573.56288 143.38048H512v61.56288h61.56288V143.36z" fill="#000000" p-id="5219"></path><path d="M573.56288 82.04288H512V143.36h61.56288V82.04288z" fill="#FDFDFD" p-id="5220"></path><path d="M573.56288 20.48H512v61.56288h61.56288V20.48zM512 941.95712h-61.35808V1003.52H512v-61.56288z" fill="#000000" p-id="5221"></path><path d="M512 880.61952h-61.35808v61.35808H512v-61.35808zM512 819.26144h-61.35808v61.35808H512v-61.35808zM512 757.71904h-61.35808v61.5424H512v-61.5424z" fill="#A2A8F6" p-id="5222"></path><path d="M512 696.36096h-61.35808v61.35808H512v-61.35808zM512 634.81856h-61.35808v61.5424H512v-61.5424zM512 573.44h-61.35808v61.35808H512v-61.3376z" fill="#A2A8F6" p-id="5223"></path><path d="M512 512.1024h-61.35808v61.35808H512v-61.35808z" fill="#A2A8F6" p-id="5224"></path><path d="M512 450.56h-61.35808v61.5424H512V450.56z" fill="#000000" p-id="5225"></path><path d="M512 389.18144h-61.35808V450.56H512v-61.35808z" fill="#FDFDFD" p-id="5226"></path><path d="M512 327.63904h-61.35808v61.56288H512v-61.56288z" fill="#FDFDFD" p-id="5227"></path><path d="M512 266.28096h-61.35808v61.35808H512v-61.35808zM512 204.94336h-61.35808v61.3376H512v-61.3376z" fill="#FDFDFD" p-id="5228"></path><path d="M512 143.38048h-61.35808v61.56288H512V143.36z" fill="#000000" p-id="5229"></path><path d="M512 82.04288h-61.35808V143.36H512V82.04288z" fill="#FDFDFD" p-id="5230"></path><path d="M512 20.48h-61.35808v61.56288H512V20.48zM450.64192 941.95712h-61.56288V1003.52h61.56288v-61.56288z" fill="#000000" p-id="5231"></path><path d="M450.64192 880.61952h-61.56288v61.35808h61.56288v-61.35808zM450.64192 819.26144h-61.56288v61.35808h61.56288v-61.35808zM450.64192 757.71904h-61.56288v61.5424h61.56288v-61.5424z" fill="#A2A8F6" p-id="5232"></path><path d="M450.64192 696.36096h-61.56288v61.35808h61.56288v-61.35808zM450.64192 634.81856h-61.56288v61.5424h61.56288v-61.5424zM450.64192 573.44h-61.56288v61.35808h61.56288v-61.3376z" fill="#A2A8F6" p-id="5233"></path><path d="M450.64192 512.1024h-61.56288v61.35808h61.56288v-61.35808z" fill="#A2A8F6" p-id="5234"></path><path d="M450.64192 450.56h-61.56288v61.5424h61.56288V450.56z" fill="#000000" p-id="5235"></path><path d="M450.64192 389.18144h-61.56288V450.56h61.56288v-61.35808z" fill="#FDFDFD" p-id="5236"></path><path d="M450.64192 327.63904h-61.56288v61.56288h61.56288v-61.56288z" fill="#FDFDFD" p-id="5237"></path><path d="M450.64192 266.28096h-61.56288v61.35808h61.56288v-61.35808zM450.64192 204.94336h-61.56288v61.3376h61.56288v-61.3376z" fill="#FDFDFD" p-id="5238"></path><path d="M450.64192 143.38048h-61.56288v61.56288h61.56288V143.36zM450.64192 82.04288h-61.56288V143.36h61.56288V82.04288z" fill="#FDFDFD" p-id="5239"></path><path d="M450.64192 20.48h-61.56288v61.56288h61.56288V20.48zM389.05856 941.95712h-61.35808V1003.52h61.35808v-61.56288z" fill="#000000" p-id="5240"></path><path d="M389.05856 880.61952h-61.35808v61.35808h61.35808v-61.35808zM389.05856 819.26144h-61.35808v61.35808h61.35808v-61.35808zM389.05856 757.71904h-61.35808v61.5424h61.35808v-61.5424z" fill="#A2A8F6" p-id="5241"></path><path d="M389.05856 696.36096h-61.35808v61.35808h61.35808v-61.35808zM389.05856 634.81856h-61.35808v61.5424h61.35808v-61.5424zM389.05856 573.44h-61.35808v61.35808h61.35808v-61.3376z" fill="#A2A8F6" p-id="5242"></path><path d="M389.05856 512.1024h-61.35808v61.35808h61.35808v-61.35808z" fill="#A2A8F6" p-id="5243"></path><path d="M389.05856 450.56h-61.35808v61.5424h61.35808V450.56z" fill="#000000" p-id="5244"></path><path d="M389.05856 389.18144h-61.35808V450.56h61.35808v-61.35808z" fill="#FDFDFD" p-id="5245"></path><path d="M389.05856 327.63904h-61.35808v61.56288h61.35808v-61.56288z" fill="#FDFDFD" p-id="5246"></path><path d="M389.05856 266.28096h-61.35808v61.35808h61.35808v-61.35808zM389.05856 204.94336h-61.35808v61.3376h61.35808v-61.3376z" fill="#FDFDFD" p-id="5247"></path><path d="M389.05856 143.38048h-61.35808v61.56288h61.35808V143.36z" fill="#000000" p-id="5248"></path><path d="M389.05856 82.04288h-61.35808V143.36h61.35808V82.04288z" fill="#FDFDFD" p-id="5249"></path><path d="M389.05856 20.48h-61.35808v61.56288h61.35808V20.48zM327.70048 880.61952h-61.35808v61.35808H327.68v-61.35808z" fill="#000000" p-id="5250"></path><path d="M327.70048 819.26144h-61.35808v61.35808H327.68v-61.35808zM327.70048 757.71904h-61.35808v61.5424H327.68v-61.5424z" fill="#A2A8F6" p-id="5251"></path><path d="M327.70048 696.36096h-61.35808v61.35808H327.68v-61.35808zM327.70048 634.81856h-61.35808v61.5424H327.68v-61.5424zM327.70048 573.44h-61.35808v61.35808H327.68v-61.3376z" fill="#A2A8F6" p-id="5252"></path><path d="M327.70048 512.1024h-61.35808v61.35808H327.68v-61.35808z" fill="#A2A8F6" p-id="5253"></path><path d="M327.70048 450.56h-61.35808v61.5424H327.68V450.56z" fill="#000000" p-id="5254"></path><path d="M327.70048 389.18144h-61.35808V450.56H327.68v-61.35808z" fill="#FDFDFD" p-id="5255"></path><path d="M327.70048 327.63904h-61.35808v61.56288H327.68v-61.56288z" fill="#FDFDFD" p-id="5256"></path><path d="M327.70048 266.28096h-61.35808v61.35808H327.68v-61.35808zM327.70048 204.94336h-61.35808v61.3376H327.68v-61.3376z" fill="#FDFDFD" p-id="5257"></path><path d="M327.70048 143.38048h-61.35808v61.56288H327.68V143.36z" fill="#FDFDFD" p-id="5258"></path><path d="M327.70048 82.04288h-61.35808V143.36H327.68V82.04288zM266.3424 880.61952H204.77952v61.35808h61.56288v-61.35808z" fill="#000000" p-id="5259"></path><path d="M266.3424 819.26144H204.77952v61.35808h61.56288v-61.35808zM266.3424 757.71904H204.77952v61.5424h61.56288v-61.5424z" fill="#A2A8F6" p-id="5260"></path><path d="M266.3424 696.36096H204.77952v61.35808h61.56288v-61.35808zM266.3424 634.81856H204.77952v61.5424h61.56288v-61.5424zM266.3424 573.44H204.77952v61.35808h61.56288v-61.3376z" fill="#A2A8F6" p-id="5261"></path><path d="M266.3424 512.1024H204.77952v61.35808h61.56288v-61.35808z" fill="#A2A8F6" p-id="5262"></path><path d="M266.3424 450.56H204.77952v61.5424h61.56288V450.56z" fill="#000000" p-id="5263"></path><path d="M266.3424 389.18144H204.77952V450.56h61.56288v-61.35808z" fill="#FDFDFD" p-id="5264"></path><path d="M266.3424 327.63904H204.77952v61.56288h61.56288v-61.56288z" fill="#FDFDFD" p-id="5265"></path><path d="M266.3424 266.28096H204.77952v61.35808h61.56288v-61.35808zM266.3424 204.94336H204.77952v61.3376h61.56288v-61.3376z" fill="#FDFDFD" p-id="5266"></path><path d="M266.3424 143.38048H204.77952v61.56288h61.56288V143.36z" fill="#FDFDFD" p-id="5267"></path><path d="M266.3424 82.04288H204.77952V143.36h61.56288V82.04288zM204.77952 819.26144H143.40096v61.35808H204.8v-61.35808z" fill="#000000" p-id="5268"></path><path d="M204.77952 757.71904H143.40096v61.5424H204.8v-61.5424z" fill="#A2A8F6" p-id="5269"></path><path d="M204.77952 696.36096H143.40096v61.35808H204.8v-61.35808zM204.77952 634.81856H143.40096v61.5424H204.8v-61.5424zM204.77952 573.44H143.40096v61.35808H204.8v-61.3376z" fill="#A2A8F6" p-id="5270"></path><path d="M204.77952 512.1024H143.40096v61.35808H204.8v-61.35808z" fill="#A2A8F6" p-id="5271"></path><path d="M204.77952 450.56H143.40096v61.5424H204.8V450.56z" fill="#000000" p-id="5272"></path><path d="M204.77952 389.18144H143.40096V450.56H204.8v-61.35808z" fill="#FDFDFD" p-id="5273"></path><path d="M204.77952 327.63904H143.40096v61.56288H204.8v-61.56288z" fill="#FDFDFD" p-id="5274"></path><path d="M204.77952 266.28096H143.40096v61.35808H204.8v-61.35808zM204.77952 204.94336H143.40096v61.3376H204.8v-61.3376z" fill="#FDFDFD" p-id="5275"></path><path d="M204.77952 143.38048H143.40096v61.56288H204.8V143.36zM143.42144 757.71904H81.83808v61.5424h61.58336v-61.5424z" fill="#000000" p-id="5276"></path><path d="M143.42144 696.36096H81.83808v61.35808h61.58336v-61.35808z" fill="#000000" p-id="5277"></path><path d="M143.42144 634.81856H81.83808v61.5424h61.58336v-61.5424zM143.42144 573.44H81.83808v61.35808h61.58336v-61.3376z" fill="#A2A8F6" p-id="5278"></path><path d="M143.42144 512.1024H81.83808v61.35808h61.58336v-61.35808z" fill="#A2A8F6" p-id="5279"></path><path d="M143.42144 450.56H81.83808v61.5424h61.58336V450.56z" fill="#000000" p-id="5280"></path><path d="M143.42144 389.18144H81.83808V450.56h61.58336v-61.35808z" fill="#FDFDFD" p-id="5281"></path><path d="M143.42144 327.63904H81.83808v61.56288h61.58336v-61.56288z" fill="#FDFDFD" p-id="5282"></path><path d="M143.42144 266.28096H81.83808v61.35808h61.58336v-61.35808zM143.42144 204.94336H81.83808v61.3376h61.58336v-61.3376zM81.83808 634.81856H20.48v61.5424h61.35808v-61.5424zM81.83808 573.44H20.48v61.35808h61.35808v-61.3376z" fill="#000000" p-id="5283"></path><path d="M81.83808 512.1024H20.48v61.35808h61.35808v-61.35808zM81.83808 450.56H20.48v61.5424h61.35808V450.56zM81.83808 389.18144H20.48V450.56h61.35808v-61.35808z" fill="#000000" p-id="5284"></path><path d="M81.83808 327.63904H20.48v61.56288h61.35808v-61.56288z" fill="#000000" p-id="5285"></path></svg>